<svg xmlns="http://www.w3.org/2000/svg" xml:space="preserve" width="1005.28" height="204.16" viewBox="0 0 1005.28 204.16"><path d="M640.49 56.31c-3.23-.08-5.88-1.211-7.93-3.391q-3.075-3.27-3.18-8.244.105-4.884 3.18-8.162c2.05-2.186 4.7-3.321 7.93-3.407 3.21.086 5.85 1.221 7.91 3.407q3.105 3.278 3.21 8.162-.105 4.974-3.21 8.244c-2.06 2.18-4.7 3.311-7.91 3.391m-57.17 0c-3.24-.08-5.88-1.211-7.93-3.391q-3.075-3.27-3.18-8.244.105-4.884 3.18-8.162c2.05-2.186 4.69-3.321 7.93-3.407 3.21.086 5.85 1.221 7.91 3.407s3.13 4.906 3.2 8.162c-.07 3.316-1.14 6.064-3.2 8.244s-4.7 3.311-7.91 3.391m-277.7 0c-3.23-.08-5.88-1.211-7.93-3.391q-3.075-3.27-3.18-8.244.105-4.884 3.18-8.162c2.05-2.186 4.7-3.321 7.93-3.407 3.21.086 5.85 1.221 7.91 3.407 2.07 2.186 3.13 4.906 3.21 8.162-.08 3.316-1.14 6.064-3.21 8.244-2.06 2.18-4.7 3.311-7.91 3.391m378.21.261c-3.34-.077-6.09-1.213-8.23-3.407-2.15-2.193-3.26-4.98-3.34-8.358.08-3.412 1.19-6.229 3.34-8.448 2.14-2.22 4.89-3.369 8.23-3.448 3.37.083 6.1 1.24 8.2 3.472 2.09 2.232 3.18 5.04 3.24 8.424-.06 3.35-1.15 6.128-3.24 8.334-2.1 2.206-4.83 3.35-8.2 3.431m-265.84.262c-2.67-.033-4.97-.753-6.88-2.159-1.92-1.406-3.28-3.303-4.09-5.69h21.69c-.68 2.587-1.94 4.542-3.79 5.862q-2.775 1.98-6.93 1.987m-169.47 0c-2.68-.033-4.97-.753-6.89-2.159-1.91-1.406-3.28-3.303-4.09-5.69h21.69c-.68 2.587-1.94 4.542-3.79 5.862s-4.16 1.983-6.92 1.987m459.07 6.983h9.4l10.65-25.71 10.06 25.71h9.28l-22.8-55.793h-8.95l8.04 19.511zm-540.99 0h8.94V42.058c0-3.002.66-5.346 2-7.033 1.35-1.686 3.4-2.544 6.17-2.572q3.75.018 6.09 2.67c1.56 1.769 2.37 4.341 2.41 7.719v20.974h8.82V25.6h-8.75v4.372a12.6 12.6 0 0 0-4.56-3.777q-2.745-1.357-6.42-1.379c-4.62.031-8.21 1.454-10.78 4.268s-3.88 6.834-3.92 12.059zm-40.84 0h8.88V25.6h-8.88zm556.76.784c2.54-.02 4.87-.534 6.98-1.542q3.18-1.512 5.31-4.137v4.895h8.82V26.578c-.01-3.615-.76-6.886-2.26-9.813-1.5-2.926-3.71-5.256-6.64-6.991-2.92-1.735-6.54-2.623-10.83-2.665-4.95.06-9.03 1.097-12.23 3.109-3.21 2.012-5.66 4.633-7.37 7.862l7.83 4.774c1.35-2.579 2.92-4.5 4.72-5.763 1.81-1.263 4.2-1.892 7.18-1.888q5.055.145 7.92 3.343c1.92 2.132 2.89 4.7 2.93 7.706v4.439c-1.43-1.844-3.22-3.28-5.36-4.309-2.15-1.028-4.52-1.55-7.13-1.566q-4.695.019-8.97 2.36c-2.85 1.561-5.19 3.818-7.01 6.773-1.83 2.955-2.77 6.531-2.83 10.726.05 4.238.98 7.838 2.76 10.801 1.79 2.963 4.11 5.222 6.97 6.776q4.29 2.331 9.21 2.348m-42.03 0c3.71-.039 7.04-.933 10.02-2.682 2.97-1.749 5.33-4.119 7.09-7.109 1.75-2.991 2.65-6.369 2.69-10.134-.04-3.702-.94-7.045-2.69-10.029-1.76-2.984-4.12-5.358-7.09-7.122-2.98-1.763-6.31-2.666-10.02-2.708-3.72.042-7.07.945-10.04 2.708a19.7 19.7 0 0 0-7.07 7.122c-1.75 2.984-2.64 6.327-2.68 10.029.04 3.765.93 7.143 2.68 10.134 1.74 2.99 4.1 5.36 7.07 7.109s6.32 2.643 10.04 2.682m-57.17 0c3.7-.039 7.04-.933 10.01-2.682 2.98-1.749 5.34-4.119 7.09-7.109 1.76-2.991 2.65-6.369 2.7-10.134-.05-3.702-.94-7.045-2.7-10.029a19.76 19.76 0 0 0-7.09-7.122c-2.97-1.763-6.31-2.666-10.01-2.708-3.72.042-7.07.945-10.04 2.708a19.8 19.8 0 0 0-7.08 7.122q-2.61 4.476-2.67 10.029.06 5.647 2.67 10.134 2.625 4.485 7.08 7.109c2.97 1.749 6.32 2.643 10.04 2.682m-39.2 0c4.83-.031 8.56-1.454 11.18-4.268s3.94-6.834 3.97-12.059V25.6h-8.94v21.758q0 4.503-2.16 7.033c-1.44 1.686-3.59 2.544-6.47 2.572-2.58-.012-4.7-.902-6.37-2.67-1.66-1.769-2.53-4.341-2.59-7.719V25.6h-8.81v38.216h8.75v-4.699a13.7 13.7 0 0 0 4.81 3.99q2.895 1.463 6.63 1.493m-83.25 0q6.48-.09 11.22-3.313c3.16-2.149 5.5-4.985 7.01-8.507l-7.91-3.333q-1.35 3.174-4.02 5t-6.24 1.863q-4.95-.12-8.07-3.391c-2.09-2.18-3.16-4.928-3.23-8.244.07-3.256 1.14-5.976 3.23-8.162 2.1-2.186 4.81-3.321 8.14-3.407q3.735.053 6.36 1.993t3.96 5.132l7.91-3.399c-1.53-3.588-3.85-6.472-6.98-8.654-3.12-2.182-6.92-3.302-11.38-3.362-3.76.042-7.14.945-10.11 2.708a19.65 19.65 0 0 0-7.08 7.122q-2.61 4.476-2.67 10.029.06 5.648 2.67 10.134 2.61 4.485 7.08 7.109c2.97 1.749 6.35 2.643 10.11 2.682m-42.88 0c3.82-.033 7.21-.895 10.15-2.585a18.34 18.34 0 0 0 6.94-6.955c1.69-2.946 2.54-6.32 2.58-10.123v-3.329h-31.1q.96-4.125 3.99-6.548 3.03-2.421 7.77-2.477c2.5.023 4.65.631 6.47 1.823q2.715 1.788 4.11 4.913l7.25-4.185q-2.49-4.718-6.93-7.486c-2.96-1.846-6.59-2.79-10.9-2.832-4.03.04-7.56.932-10.58 2.677-3.01 1.745-5.36 4.104-7.04 7.076-1.69 2.973-2.54 6.32-2.57 10.042q.06 5.648 2.67 10.149a19.54 19.54 0 0 0 7.08 7.141q4.47 2.64 10.11 2.699m-112.37 0q5.55-.059 10.02-2.682c2.97-1.749 5.33-4.119 7.09-7.109 1.75-2.991 2.65-6.369 2.69-10.134-.04-3.702-.94-7.045-2.69-10.029-1.76-2.984-4.12-5.358-7.09-7.122q-4.47-2.645-10.02-2.708c-3.72.042-7.07.945-10.04 2.708a19.7 19.7 0 0 0-7.07 7.122c-1.75 2.984-2.64 6.327-2.68 10.029.04 3.765.93 7.143 2.68 10.134 1.74 2.99 4.1 5.36 7.07 7.109s6.32 2.643 10.04 2.682m-57.1 0c3.82-.033 7.2-.895 10.15-2.585 2.94-1.69 5.25-4.008 6.94-6.955 1.68-2.946 2.54-6.32 2.57-10.123v-3.329h-31.1c.64-2.75 1.98-4.933 4-6.548 2.02-1.614 4.61-2.44 7.76-2.477 2.5.023 4.66.631 6.47 1.823s3.18 2.83 4.12 4.913l7.25-4.185c-1.67-3.145-3.98-5.641-6.94-7.486-2.96-1.846-6.59-2.79-10.9-2.832-4.03.04-7.56.932-10.57 2.677q-4.53 2.618-7.05 7.076c-1.68 2.973-2.54 6.32-2.56 10.042.03 3.765.92 7.148 2.66 10.149a19.54 19.54 0 0 0 7.08 7.141c2.98 1.76 6.35 2.659 10.12 2.699m-204.666 0q7.25-.047 11.179-4.268 3.928-4.222 3.975-12.059V25.6h-8.944v21.758q0 4.503-2.157 7.033t-6.472 2.572q-3.863-.018-6.365-2.67t-2.591-7.719V25.6h-8.813v38.216h8.748v-4.699a13.8 13.8 0 0 0 4.813 3.99q2.89 1.463 6.627 1.493m34.629.065q5.805-.034 9.622-2.113 3.817-2.078 5.991-5.785l-7.507-3.791a8.6 8.6 0 0 1-3.268 3.195q-2.076 1.163-4.838 1.185-3.13-.056-4.642-1.25-1.512-1.195-1.504-2.868.009-1.834 2.223-2.713 2.215-.878 6.538-1.732a34.7 34.7 0 0 0 6.277-1.748q3.065-1.172 5.084-3.476t2.094-6.28q.013-2.762-1.64-5.615t-5.123-4.815q-3.471-1.96-8.915-2.043-6.392.016-10.552 2.383-4.16 2.365-6.432 6.888l8.161 3.921q1.384-2.706 3.724-4.126t5.491-1.429q3.284.05 4.912 1.364t1.626 3.276q-.118 2.02-2.713 2.852-2.595.83-6.244 1.528a37.3 37.3 0 0 0-6.375 1.806q-3.042 1.167-4.995 3.447-1.953 2.279-2.019 6.25.087 4.761 4.106 8.148 4.018 3.387 10.918 3.541M367.9 73.29h34.42v-8.486h-12.8V25.6h-8.88v39.204H367.9Zm-358.004 0h8.878V25.6H9.896Zm597.754.654h8.88V25.6h-8.88zm-124.56 0h8.82V59.248a13.6 13.6 0 0 0 4.86 3.924c1.92.937 4.12 1.413 6.58 1.428 4.83-.031 8.56-1.454 11.17-4.268 2.62-2.815 3.95-6.834 3.98-12.059V25.6h-9.01v21.693q0 4.55-2.16 7.089c-1.44 1.694-3.59 2.554-6.47 2.581-2.54-.016-4.65-.914-6.31-2.695q-2.49-2.67-2.58-7.694V25.6h-8.88zm-263.65 1.764V63.816h7.77v-7.898h-7.77V41.603c-.11-3.238.34-5.357 1.33-6.357 1-.999 3.14-1.451 6.44-1.356V25.6h-1.24c-5.82-.095-9.86 1.042-12.14 3.412q-3.42 3.555-3.27 12.526v14.38h-6.54v7.898h6.54v5.815zm-65.35 0V63.816h7.78v-7.898h-7.78V41.603c-.1-3.238.35-5.357 1.34-6.357 1-.999 3.14-1.451 6.44-1.356V25.6h-1.24c-5.82-.095-9.86 1.042-12.14 3.412q-3.42 3.555-3.27 12.526v14.38h-6.54v7.898h6.54v5.815zm-40.83 0V63.816h7.77v-7.898h-7.77V41.603c-.1-3.238.34-5.357 1.34-6.357.99-.999 3.14-1.451 6.43-1.356V25.6h-1.24c-5.81-.095-9.86 1.042-12.14 3.412q-3.42 3.555-3.27 12.526v14.38h-6.535v7.898h6.535v5.815zm16.94 3.006c1.75-.024 3.1-.532 4.07-1.526.97-.995 1.47-2.336 1.48-4.024-.01-1.685-.51-3.016-1.48-3.991s-2.32-1.473-4.07-1.494c-1.8.021-3.18.519-4.12 1.494-.95.975-1.42 2.306-1.43 3.991q.03 2.532 1.5 4.024 1.47 1.49 4.05 1.526m218.74.457h.78v-8.159c-2.31.014-4.04-.196-5.16-.63-1.13-.434-1.87-1.177-2.21-2.229-.35-1.052-.5-2.498-.47-4.337h7.84v-7.898h-7.84V25.6h-8.94v30.318h-6.47v7.898h6.47v.065c-.06 5.442 1.15 9.363 3.64 11.763q3.735 3.601 12.36 3.527m289.97 49.459c-3.34-.07-6.09-1.21-8.24-3.4-2.14-2.2-3.26-4.98-3.33-8.36.07-3.41 1.19-6.23 3.33-8.45 2.15-2.22 4.9-3.37 8.24-3.45 3.36.09 6.1 1.24 8.19 3.47 2.1 2.24 3.18 5.04 3.25 8.43-.07 3.35-1.15 6.13-3.25 8.33-2.09 2.21-4.83 3.35-8.19 3.43m-167.44 0c-3.34-.07-6.08-1.21-8.23-3.4-2.15-2.2-3.26-4.98-3.33-8.36.07-3.41 1.18-6.23 3.33-8.45s4.89-3.37 8.23-3.45c3.37.09 6.1 1.24 8.2 3.47 2.1 2.24 3.18 5.04 3.24 8.43-.06 3.35-1.14 6.13-3.24 8.33-2.1 2.21-4.83 3.35-8.2 3.43m-79.63 0c-3.34-.07-6.09-1.21-8.24-3.4-2.14-2.2-3.26-4.98-3.33-8.36.07-3.41 1.19-6.23 3.33-8.45 2.15-2.22 4.9-3.37 8.24-3.45 3.37.09 6.1 1.24 8.2 3.47 2.09 2.24 3.17 5.04 3.24 8.43-.07 3.35-1.15 6.13-3.24 8.33-2.1 2.21-4.83 3.35-8.2 3.43m-104.14 0c-3.34-.07-6.08-1.21-8.23-3.4-2.15-2.2-3.26-4.98-3.34-8.36.08-3.41 1.19-6.23 3.34-8.45s4.89-3.37 8.23-3.45c3.37.09 6.1 1.24 8.2 3.47 2.1 2.24 3.18 5.04 3.24 8.43-.06 3.35-1.14 6.13-3.24 8.33-2.1 2.21-4.83 3.35-8.2 3.43m-222.562 0c-3.342-.07-6.088-1.21-8.236-3.4-2.149-2.2-3.26-4.98-3.334-8.36.074-3.41 1.185-6.23 3.334-8.45q3.222-3.33 8.236-3.45c3.364.09 6.096 1.24 8.194 3.47 2.099 2.24 3.18 5.04 3.244 8.43-.064 3.35-1.145 6.13-3.244 8.33-2.098 2.21-4.83 3.35-8.194 3.43m530.502.27c-2.68-.04-4.97-.76-6.89-2.16-1.91-1.41-3.27-3.31-4.09-5.69h21.69c-.67 2.58-1.94 4.54-3.79 5.86s-4.16 1.98-6.92 1.99m-245.76 3.84-6.28-18.1h12.55zm63.87 3.14h9.21l9.87-26.92 9.66 26.92h9.08L437.2 97.662h-8.88zm-224.69 0H198v-21.76c0-3 .66-5.35 2.01-7.03 1.34-1.69 3.39-2.55 6.17-2.57 2.49.01 4.52.9 6.08 2.67 1.56 1.76 2.37 4.34 2.41 7.71v20.98h8.82V97.662h-8.75v4.368a12.6 12.6 0 0 0-4.56-3.773q-2.745-1.356-6.42-1.379c-4.62.032-8.21 1.454-10.78 4.272-2.57 2.81-3.88 6.83-3.92 12.06zm406.58.78c3.82-.03 7.2-.89 10.15-2.58 2.94-1.69 5.26-4.01 6.94-6.96 1.68-2.94 2.54-6.32 2.57-10.12v-3.33h-31.09c.64-2.75 1.97-4.93 3.99-6.55 2.02-1.61 4.61-2.44 7.76-2.47 2.5.02 4.66.63 6.47 1.82s3.19 2.83 4.12 4.91l7.25-4.18c-1.66-3.15-3.97-5.64-6.93-7.49-2.96-1.846-6.6-2.79-10.91-2.832-4.03.04-7.55.933-10.57 2.678q-4.53 2.618-7.05 7.074c-1.68 2.97-2.54 6.32-2.56 10.04.04 3.77.93 7.15 2.66 10.15q2.61 4.5 7.08 7.14c2.98 1.76 6.36 2.66 10.12 2.7m-40.84 0c4.32-.06 8.06-1.16 11.22-3.31s5.49-4.99 7.01-8.51l-7.91-3.33c-.91 2.12-2.25 3.78-4.03 5s-3.85 1.84-6.23 1.86c-3.3-.08-5.99-1.21-8.08-3.39-2.08-2.18-3.16-4.93-3.22-8.24.06-3.26 1.14-5.98 3.23-8.16 2.09-2.19 4.8-3.33 8.14-3.41 2.49.03 4.61.7 6.36 1.99q2.625 1.95 3.96 5.13l7.91-3.4c-1.53-3.58-3.85-6.47-6.98-8.65-3.12-2.181-6.92-3.302-11.38-3.362-3.77.042-7.14.945-10.12 2.709-2.98 1.763-5.34 4.133-7.07 7.123-1.74 2.98-2.63 6.33-2.67 10.03.04 3.76.93 7.14 2.67 10.13 1.73 2.99 4.09 5.36 7.07 7.11s6.35 2.64 10.12 2.68m-39.27 0c4.83-.03 8.56-1.45 11.18-4.27 2.62-2.81 3.94-6.83 3.98-12.05V97.662h-8.95v21.758c0 3-.72 5.35-2.16 7.03-1.43 1.69-3.59 2.55-6.47 2.58q-3.855-.03-6.36-2.67c-1.67-1.77-2.53-4.35-2.59-7.72V97.662h-8.82v38.218h8.75v-4.7c1.28 1.68 2.89 3.01 4.81 3.99 1.93.97 4.14 1.47 6.63 1.49m-45.36 0c2.54-.01 4.86-.49 6.97-1.43 2.12-.93 3.89-2.24 5.32-3.92v4.57h8.81V97.662h-8.81v4.958c-1.44-1.81-3.23-3.214-5.38-4.216s-4.5-1.511-7.04-1.526c-3.14.013-6.13.8-8.98 2.361s-5.18 3.821-7.01 6.771c-1.82 2.96-2.77 6.53-2.83 10.73q.09 6.36 2.76 10.8c1.79 2.96 4.11 5.22 6.98 6.77 2.86 1.56 5.93 2.34 9.21 2.35m-183.77 0c2.53-.02 4.86-.53 6.97-1.54 2.12-1.01 3.89-2.39 5.32-4.14v4.9h8.81V98.641c-.01-3.616-.76-6.887-2.26-9.813-1.49-2.926-3.71-5.257-6.63-6.992-2.93-1.735-6.54-2.623-10.84-2.665-4.95.061-9.02 1.097-12.23 3.109-3.2 2.012-5.66 4.633-7.37 7.862l7.83 4.775c1.35-2.58 2.92-4.501 4.73-5.764q2.7-1.894 7.17-1.888c3.37.097 6.01 1.211 7.93 3.343 1.91 2.132 2.89 4.701 2.92 7.706v4.436a14.74 14.74 0 0 0-5.36-4.305c-2.15-1.028-4.52-1.55-7.12-1.567-3.14.013-6.13.8-8.98 2.36-2.85 1.562-5.18 3.822-7.01 6.772-1.82 2.96-2.77 6.53-2.83 10.73q.09 6.36 2.76 10.8c1.79 2.96 4.11 5.22 6.98 6.77 2.86 1.56 5.93 2.34 9.21 2.35m-38.36 0c4.84-.03 8.56-1.45 11.18-4.27 2.62-2.81 3.95-6.83 3.98-12.05V97.662h-8.95v21.758c0 3-.72 5.35-2.15 7.03q-2.16 2.535-6.48 2.58-3.855-.03-6.36-2.67c-1.67-1.77-2.53-4.35-2.59-7.72V97.662h-8.81v38.218h8.74v-4.7c1.29 1.68 2.89 3.01 4.82 3.99 1.92.97 4.13 1.47 6.62 1.49m-139.37 0c3.01-.01 5.54-.59 7.61-1.73q3.09-1.71 4.8-4.86c1.33 2.02 3.06 3.61 5.2 4.79q3.21 1.77 7.35 1.8c5.19-.04 9.08-1.46 11.67-4.25s3.88-6.71 3.88-11.75V97.662h-9.01v22.278c0 2.81-.7 5.02-2.09 6.63s-3.47 2.42-6.21 2.46c-2.44 0-4.44-.82-6.01-2.48-1.56-1.65-2.37-4.16-2.43-7.52V97.662h-8.94V120.2c0 2.77-.68 4.93-2.03 6.47-1.36 1.55-3.36 2.33-6.01 2.36q-3.795 0-6.18-2.55-2.376-2.55-2.45-7.65V97.662h-8.813v38.218h8.748v-4.44a12.8 12.8 0 0 0 4.605 3.81c1.84.92 3.95 1.39 6.31 1.41m-44.84 0c2.539-.01 4.864-.49 6.978-1.43 2.113-.93 3.884-2.24 5.311-3.92v4.57h8.813V97.662h-8.813v4.958q-2.15-2.714-5.376-4.216-3.228-1.503-7.043-1.526-4.7.02-8.974 2.361c-2.849 1.561-5.186 3.821-7.011 6.771-1.824 2.96-2.767 6.53-2.829 10.73q.082 6.36 2.762 10.8c1.786 2.96 4.11 5.22 6.971 6.77 2.862 1.56 5.932 2.34 9.211 2.35m104.5.07c3.87-.03 7.07-.73 9.62-2.12 2.54-1.38 4.54-3.31 5.99-5.78l-7.51-3.79a8.5 8.5 0 0 1-3.27 3.19c-1.38.78-2.99 1.17-4.83 1.19-2.09-.04-3.64-.46-4.65-1.25-1-.8-1.5-1.75-1.5-2.87.01-1.22.75-2.13 2.22-2.71 1.48-.59 3.66-1.17 6.54-1.73 2.14-.39 4.23-.97 6.28-1.75 2.04-.78 3.74-1.94 5.08-3.48 1.35-1.53 2.05-3.63 2.1-6.28 0-1.84-.54-3.71-1.64-5.61-1.1-1.91-2.81-3.51-5.13-4.819q-3.465-1.96-8.91-2.043c-4.26.011-7.78.805-10.55 2.383-2.78 1.579-4.92 3.869-6.44 6.889l8.17 3.92c.92-1.8 2.16-3.18 3.72-4.13 1.56-.94 3.39-1.42 5.49-1.42 2.19.03 3.83.48 4.91 1.36 1.09.87 1.63 1.97 1.63 3.28-.08 1.34-.98 2.29-2.71 2.85-1.73.55-3.82 1.06-6.25 1.53a36.5 36.5 0 0 0-6.37 1.8c-2.03.78-3.7 1.93-5 3.45s-1.97 3.6-2.02 6.25c.06 3.17 1.43 5.89 4.11 8.15q4.02 3.375 10.92 3.54m177.04 8.62h8.95l16.98-47.688h-9.27l-2.94 8.498H340.6l-2.94-8.498h-9.28zm304.46.66h8.87V97.662h-8.81v4.958c-1.43-1.81-3.22-3.214-5.38-4.216-2.15-1.002-4.49-1.511-7.04-1.526q-4.695.02-8.97 2.361c-2.85 1.561-5.19 3.821-7.01 6.771-1.83 2.96-2.77 6.53-2.83 10.73q.075 6.36 2.76 10.8c1.79 2.96 4.11 5.22 6.97 6.77 2.86 1.56 5.93 2.34 9.21 2.35 2.51-.01 4.82-.47 6.92-1.39 2.11-.92 3.88-2.22 5.31-3.89zm-247.07 0h8.87V97.662h-8.81v4.958q-2.145-2.714-5.37-4.216c-2.16-1.002-4.5-1.511-7.05-1.526q-4.695.02-8.97 2.361c-2.85 1.561-5.19 3.821-7.01 6.771-1.83 2.96-2.77 6.53-2.83 10.73q.075 6.36 2.76 10.8c1.79 2.96 4.11 5.22 6.97 6.77 2.86 1.56 5.93 2.34 9.21 2.35 2.51-.01 4.82-.47 6.92-1.39 2.11-.92 3.88-2.22 5.31-3.89zm-377.579 0c3.773-.04 6.915-.7 9.427-1.97a23 23 0 0 0 6.579-4.95l-7.312-5.56c-2.025 3.06-4.901 4.59-8.628 4.58q-3.293-.06-4.977-1.56-1.686-1.515-1.692-3.87c.079-1.85 1.049-3.24 2.91-4.15q2.79-1.365 6.832-2.58a40.6 40.6 0 0 0 6.448-2.55c2.092-1.05 3.824-2.48 5.198-4.3 1.373-1.83 2.084-4.25 2.135-7.27-.01-2.54-.658-4.94-1.945-7.18q-1.93-3.358-5.602-5.467t-8.915-2.174q-6.373.076-10.879 2.44c-3.004 1.581-5.584 3.611-7.739 6.111l8.097 6.41c1.219-2.1 2.716-3.71 4.491-4.81s3.764-1.66 5.965-1.66q3.542.075 5.393 1.95c1.234 1.24 1.855 2.72 1.864 4.45-.1 1.93-1.127 3.38-3.081 4.34q-2.932 1.44-6.857 2.52c-2.203.66-4.33 1.47-6.38 2.44-2.05.96-3.741 2.32-5.072 4.06s-2.02 4.11-2.068 7.1q.13 5.865 4.473 9.69 4.344 3.825 11.335 3.96" style="fill:#000;fill-opacity:1;fill-rule:evenodd;stroke:none" transform="matrix(1.33333 0 0 -1.33333 0 204.16)"/></svg>